<?xml version="1.0" encoding="UTF-8" standalone="no"?>
<svg width="1780" height="980" viewBox="0 0 1780 980" xmlns="http://www.w3.org/2000/svg">
<defs>
  <marker id="arrow" markerWidth="9" markerHeight="7" refX="8" refY="3.5" orient="auto">
    <polygon points="0 0, 9 3.5, 0 7" fill="#8a97aa"/>
  </marker>
</defs>
<rect width="1780" height="980" fill="white"/>
<text x="890" y="34" text-anchor="middle" font-family="Helvetica,Arial,sans-serif" font-size="24" font-weight="700" fill="#1f2933">ASTIS Mathlib-Ready SDE/Sampling Lean Arsenal</text>
<text x="890" y="60" text-anchor="middle" font-family="Helvetica,Arial,sans-serif" font-size="12" fill="#475569">Canonical local modules only: compiled ASTIS-owned technical leaves and their parent import surfaces.  Paper consumers and external projects are documented in ledgers, not shown as arsenal nodes.</text>
<g id="edges">
<path d="M 825.0 131.0 C 825.0 160.5, 220.0 160.5, 220.0 190.0" fill="none" stroke="#8a97aa" stroke-width="1.2" marker-end="url(#arrow)"/>
<path d="M 825.0 131.0 C 825.0 160.5, 550.0 160.5, 550.0 190.0" fill="none" stroke="#8a97aa" stroke-width="1.2" marker-end="url(#arrow)"/>
<path d="M 825.0 131.0 C 825.0 225.5, 1210.0 225.5, 1210.0 320.0" fill="none" stroke="#8a97aa" stroke-width="1.2" marker-end="url(#arrow)"/>
<path d="M 825.0 131.0 C 825.0 160.5, 1555.0 160.5, 1555.0 190.0" fill="none" stroke="#8a97aa" stroke-width="1.2" marker-end="url(#arrow)"/>
<path d="M 825.0 131.0 C 825.0 225.5, 1555.0 225.5, 1555.0 320.0" fill="none" stroke="#8a97aa" stroke-width="1.2" marker-end="url(#arrow)"/>
<path d="M 825.0 131.0 C 825.0 225.5, 550.0 225.5, 550.0 320.0" fill="none" stroke="#8a97aa" stroke-width="1.2" marker-end="url(#arrow)"/>
<path d="M 220.0 246.0 C 220.0 350.5, 880.0 350.5, 880.0 455.0" fill="none" stroke="#8a97aa" stroke-width="1.2" marker-end="url(#arrow)"/>
<path d="M 550.0 246.0 C 550.0 350.5, 880.0 350.5, 880.0 455.0" fill="none" stroke="#8a97aa" stroke-width="1.2" marker-end="url(#arrow)"/>
<path d="M 220.0 246.0 C 220.0 283.0, 550.0 283.0, 550.0 320.0" fill="none" stroke="#8a97aa" stroke-width="1.2" marker-end="url(#arrow)"/>
<path d="M 550.0 246.0 C 550.0 283.0, 550.0 283.0, 550.0 320.0" fill="none" stroke="#8a97aa" stroke-width="1.2" marker-end="url(#arrow)"/>
<path d="M 880.0 246.0 C 880.0 318.0, 550.0 318.0, 550.0 390.0" fill="none" stroke="#8a97aa" stroke-width="1.2" marker-end="url(#arrow)"/>
<path d="M 880.0 246.0 C 880.0 350.5, 1210.0 350.5, 1210.0 455.0" fill="none" stroke="#8a97aa" stroke-width="1.2" marker-end="url(#arrow)"/>
<path d="M 220.0 509.0 C 220.0 607.0, 930.0 607.0, 930.0 705.0" fill="none" stroke="#8a97aa" stroke-width="1.2" marker-end="url(#arrow)"/>
<path d="M 550.0 509.0 C 550.0 607.0, 930.0 607.0, 930.0 705.0" fill="none" stroke="#8a97aa" stroke-width="1.2" marker-end="url(#arrow)"/>
<path d="M 550.0 509.0 C 550.0 514.5, 220.0 514.5, 220.0 520.0" fill="none" stroke="#8a97aa" stroke-width="1.2" marker-end="url(#arrow)"/>
<path d="M 550.0 509.0 C 550.0 514.5, 895.0 514.5, 895.0 520.0" fill="none" stroke="#8a97aa" stroke-width="1.2" marker-end="url(#arrow)"/>
<path d="M 220.0 376.0 C 220.0 448.0, 895.0 448.0, 895.0 520.0" fill="none" stroke="#8a97aa" stroke-width="1.2" marker-end="url(#arrow)"/>
<path d="M 550.0 574.0 C 550.0 547.0, 895.0 547.0, 895.0 520.0" fill="none" stroke="#8a97aa" stroke-width="1.2" marker-end="url(#arrow)"/>
<path d="M 1210.0 246.0 C 1210.0 350.5, 1555.0 350.5, 1555.0 455.0" fill="none" stroke="#8a97aa" stroke-width="1.2" marker-end="url(#arrow)"/>
<path d="M 550.0 311.0 C 550.0 383.0, 1555.0 383.0, 1555.0 455.0" fill="none" stroke="#8a97aa" stroke-width="1.2" marker-end="url(#arrow)"/>
<path d="M 550.0 311.0 C 550.0 350.5, 895.0 350.5, 895.0 390.0" fill="none" stroke="#8a97aa" stroke-width="1.2" marker-end="url(#arrow)"/>
<path d="M 880.0 311.0 C 880.0 383.0, 1555.0 383.0, 1555.0 455.0" fill="none" stroke="#8a97aa" stroke-width="1.2" marker-end="url(#arrow)"/>
<path d="M 880.0 311.0 C 880.0 350.5, 895.0 350.5, 895.0 390.0" fill="none" stroke="#8a97aa" stroke-width="1.2" marker-end="url(#arrow)"/>
<path d="M 1210.0 311.0 C 1210.0 383.0, 1555.0 383.0, 1555.0 455.0" fill="none" stroke="#8a97aa" stroke-width="1.2" marker-end="url(#arrow)"/>
<path d="M 1210.0 311.0 C 1210.0 350.5, 895.0 350.5, 895.0 390.0" fill="none" stroke="#8a97aa" stroke-width="1.2" marker-end="url(#arrow)"/>
<path d="M 1555.0 509.0 C 1555.0 544.5, 1210.0 544.5, 1210.0 580.0" fill="none" stroke="#8a97aa" stroke-width="1.2" marker-end="url(#arrow)"/>
<path d="M 1555.0 311.0 C 1555.0 445.5, 1210.0 445.5, 1210.0 580.0" fill="none" stroke="#8a97aa" stroke-width="1.2" marker-end="url(#arrow)"/>
<path d="M 1555.0 311.0 C 1555.0 383.0, 550.0 383.0, 550.0 455.0" fill="none" stroke="#8a97aa" stroke-width="1.2" marker-end="url(#arrow)"/>
<path d="M 220.0 376.0 C 220.0 478.0, 220.0 478.0, 220.0 580.0" fill="none" stroke="#8a97aa" stroke-width="1.2" marker-end="url(#arrow)"/>
<path d="M 220.0 376.0 C 220.0 448.0, 550.0 448.0, 550.0 520.0" fill="none" stroke="#8a97aa" stroke-width="1.2" marker-end="url(#arrow)"/>
<path d="M 550.0 574.0 C 550.0 577.0, 220.0 577.0, 220.0 580.0" fill="none" stroke="#8a97aa" stroke-width="1.2" marker-end="url(#arrow)"/>
<path d="M 220.0 444.0 C 220.0 512.0, 220.0 512.0, 220.0 580.0" fill="none" stroke="#8a97aa" stroke-width="1.2" marker-end="url(#arrow)"/>
<path d="M 220.0 444.0 C 220.0 417.0, 895.0 417.0, 895.0 390.0" fill="none" stroke="#8a97aa" stroke-width="1.2" marker-end="url(#arrow)"/>
<path d="M 1210.0 376.0 C 1210.0 478.0, 880.0 478.0, 880.0 580.0" fill="none" stroke="#8a97aa" stroke-width="1.2" marker-end="url(#arrow)"/>
<path d="M 1555.0 246.0 C 1555.0 413.0, 880.0 413.0, 880.0 580.0" fill="none" stroke="#8a97aa" stroke-width="1.2" marker-end="url(#arrow)"/>
<path d="M 1555.0 574.0 C 1555.0 577.0, 880.0 577.0, 880.0 580.0" fill="none" stroke="#8a97aa" stroke-width="1.2" marker-end="url(#arrow)"/>
<path d="M 550.0 376.0 C 550.0 478.0, 565.0 478.0, 565.0 580.0" fill="none" stroke="#8a97aa" stroke-width="1.2" marker-end="url(#arrow)"/>
<path d="M 895.0 376.0 C 895.0 478.0, 565.0 478.0, 565.0 580.0" fill="none" stroke="#8a97aa" stroke-width="1.2" marker-end="url(#arrow)"/>
<path d="M 895.0 444.0 C 895.0 512.0, 565.0 512.0, 565.0 580.0" fill="none" stroke="#8a97aa" stroke-width="1.2" marker-end="url(#arrow)"/>
<path d="M 550.0 444.0 C 550.0 512.0, 565.0 512.0, 565.0 580.0" fill="none" stroke="#8a97aa" stroke-width="1.2" marker-end="url(#arrow)"/>
<path d="M 1555.0 376.0 C 1555.0 478.0, 1555.0 478.0, 1555.0 580.0" fill="none" stroke="#8a97aa" stroke-width="1.2" marker-end="url(#arrow)"/>
<path d="M 1210.0 509.0 C 1210.0 607.0, 930.0 607.0, 930.0 705.0" fill="none" stroke="#8a97aa" stroke-width="1.2" marker-end="url(#arrow)"/>
<path d="M 880.0 509.0 C 880.0 607.0, 930.0 607.0, 930.0 705.0" fill="none" stroke="#8a97aa" stroke-width="1.2" marker-end="url(#arrow)"/>
<path d="M 1210.0 634.0 C 1210.0 669.5, 930.0 669.5, 930.0 705.0" fill="none" stroke="#8a97aa" stroke-width="1.2" marker-end="url(#arrow)"/>
<path d="M 220.0 634.0 C 220.0 669.5, 930.0 669.5, 930.0 705.0" fill="none" stroke="#8a97aa" stroke-width="1.2" marker-end="url(#arrow)"/>
<path d="M 880.0 634.0 C 880.0 669.5, 930.0 669.5, 930.0 705.0" fill="none" stroke="#8a97aa" stroke-width="1.2" marker-end="url(#arrow)"/>
<path d="M 565.0 634.0 C 565.0 669.5, 930.0 669.5, 930.0 705.0" fill="none" stroke="#8a97aa" stroke-width="1.2" marker-end="url(#arrow)"/>
<path d="M 1555.0 634.0 C 1555.0 669.5, 930.0 669.5, 930.0 705.0" fill="none" stroke="#8a97aa" stroke-width="1.2" marker-end="url(#arrow)"/>
<path d="M 930.0 763.0 C 930.0 784.0, 930.0 784.0, 930.0 805.0" fill="none" stroke="#8a97aa" stroke-width="1.2" marker-end="url(#arrow)"/>
<path d="M 825.0 131.0 C 825.0 468.0, 930.0 468.0, 930.0 805.0" fill="none" stroke="#8a97aa" stroke-width="1.2" marker-end="url(#arrow)"/>
</g>
<g id="nodes">

<g id="AutoSamplingTheory.Probability">
  <path fill="#dff0e4" stroke="#2e7d59" stroke-width="1.8" d="M687,75 L963,75 Q975,75 975,87 L975,119 Q975,131 963,131 L687,131 Q675,131 675,119 L675,87 Q675,75 687,75 Z"/>
  <text x="825.0" y="91" text-anchor="middle" font-family="Helvetica,Arial,sans-serif" font-size="12" font-weight="700">AutoSamplingTheory</text>
  <text x="825.0" y="106" text-anchor="middle" font-family="Helvetica,Arial,sans-serif" font-size="12" font-weight="700">.Probability</text>
  <text x="825.0" y="123" text-anchor="middle" font-family="Helvetica,Arial,sans-serif" font-size="9" fill="#334155">Probability.lean; compiled 54</text>
</g>

<g id="AutoSamplingTheory.TechnicalLemmas.Probability.LawMap">
  <path fill="#dff0e4" stroke="#2e7d59" stroke-width="1.8" d="M82,190 L358,190 Q370,190 370,202 L370,234 Q370,246 358,246 L82,246 Q70,246 70,234 L70,202 Q70,190 82,190 Z"/>
  <text x="220.0" y="206" text-anchor="middle" font-family="Helvetica,Arial,sans-serif" font-size="12" font-weight="700">TechnicalLemmas.Probability</text>
  <text x="220.0" y="221" text-anchor="middle" font-family="Helvetica,Arial,sans-serif" font-size="12" font-weight="700">.LawMap</text>
  <text x="220.0" y="238" text-anchor="middle" font-family="Helvetica,Arial,sans-serif" font-size="9" fill="#334155">LawMap.lean; compiled 10; memory 2</text>
</g>

<g id="AutoSamplingTheory.TechnicalLemmas.Probability.ConditionalKernel">
  <path fill="#dff0e4" stroke="#2e7d59" stroke-width="1.8" d="M412,190 L688,190 Q700,190 700,202 L700,234 Q700,246 688,246 L412,246 Q400,246 400,234 L400,202 Q400,190 412,190 Z"/>
  <text x="550.0" y="206" text-anchor="middle" font-family="Helvetica,Arial,sans-serif" font-size="12" font-weight="700">TechnicalLemmas.Probability</text>
  <text x="550.0" y="221" text-anchor="middle" font-family="Helvetica,Arial,sans-serif" font-size="12" font-weight="700">.ConditionalKernel</text>
  <text x="550.0" y="238" text-anchor="middle" font-family="Helvetica,Arial,sans-serif" font-size="9" fill="#334155">ConditionalKernel.lean; compiled 12; memory 2</text>
</g>

<g id="AutoSamplingTheory.TechnicalLemmas.ProbabilityDistributions.Gaussian">
  <path fill="#dff0e4" stroke="#2e7d59" stroke-width="1.8" d="M742,190 L1018,190 Q1030,190 1030,202 L1030,234 Q1030,246 1018,246 L742,246 Q730,246 730,234 L730,202 Q730,190 742,190 Z"/>
  <text x="880.0" y="206" text-anchor="middle" font-family="Helvetica,Arial,sans-serif" font-size="12" font-weight="700">TechnicalLemmas.ProbDistributions</text>
  <text x="880.0" y="221" text-anchor="middle" font-family="Helvetica,Arial,sans-serif" font-size="12" font-weight="700">.Gaussian</text>
  <text x="880.0" y="238" text-anchor="middle" font-family="Helvetica,Arial,sans-serif" font-size="9" fill="#334155">Gaussian.lean; compiled 30; memory 15</text>
</g>

<g id="AutoSamplingTheory.TechnicalLemmas.Analysis.Calculus.Taylor">
  <path fill="#dff0e4" stroke="#2e7d59" stroke-width="1.8" d="M1072,190 L1348,190 Q1360,190 1360,202 L1360,234 Q1360,246 1348,246 L1072,246 Q1060,246 1060,234 L1060,202 Q1060,190 1072,190 Z"/>
  <text x="1210.0" y="206" text-anchor="middle" font-family="Helvetica,Arial,sans-serif" font-size="12" font-weight="700">TechnicalLemmas.Analysis</text>
  <text x="1210.0" y="221" text-anchor="middle" font-family="Helvetica,Arial,sans-serif" font-size="12" font-weight="700">.Calculus.Taylor</text>
  <text x="1210.0" y="238" text-anchor="middle" font-family="Helvetica,Arial,sans-serif" font-size="9" fill="#334155">Taylor.lean; compiled 4; memory 3</text>
</g>

<g id="AutoSamplingTheory.TechnicalLemmas.InformationTheory.KLDensity">
  <path fill="#dff0e4" stroke="#2e7d59" stroke-width="1.8" d="M1402,190 L1708,190 Q1720,190 1720,202 L1720,234 Q1720,246 1708,246 L1402,246 Q1390,246 1390,234 L1390,202 Q1390,190 1402,190 Z"/>
  <text x="1555.0" y="206" text-anchor="middle" font-family="Helvetica,Arial,sans-serif" font-size="12" font-weight="700">TechnicalLemmas.InformationTheory</text>
  <text x="1555.0" y="221" text-anchor="middle" font-family="Helvetica,Arial,sans-serif" font-size="12" font-weight="700">.KLDensity</text>
  <text x="1555.0" y="238" text-anchor="middle" font-family="Helvetica,Arial,sans-serif" font-size="9" fill="#334155">KLDensity.lean; compiled 2; memory 2</text>
</g>

<g id="AutoSamplingTheory.TechnicalLemmas.Analysis.Calculus.Cutoff">
  <path fill="#dff0e4" stroke="#2e7d59" stroke-width="1.8" d="M82,255 L358,255 Q370,255 370,267 L370,299 Q370,311 358,311 L82,311 Q70,311 70,299 L70,267 Q70,255 82,255 Z"/>
  <text x="220.0" y="271" text-anchor="middle" font-family="Helvetica,Arial,sans-serif" font-size="12" font-weight="700">TechnicalLemmas.Analysis</text>
  <text x="220.0" y="286" text-anchor="middle" font-family="Helvetica,Arial,sans-serif" font-size="12" font-weight="700">.Calculus.Cutoff</text>
  <text x="220.0" y="303" text-anchor="middle" font-family="Helvetica,Arial,sans-serif" font-size="9" fill="#334155">Cutoff.lean; compiled 20; memory 18</text>
</g>

<g id="AutoSamplingTheory.TechnicalLemmas.Analysis.Calculus.Divergence">
  <path fill="#dff0e4" stroke="#2e7d59" stroke-width="1.8" d="M412,255 L688,255 Q700,255 700,267 L700,299 Q700,311 688,311 L412,311 Q400,311 400,299 L400,267 Q400,255 412,255 Z"/>
  <text x="550.0" y="271" text-anchor="middle" font-family="Helvetica,Arial,sans-serif" font-size="12" font-weight="700">TechnicalLemmas.Analysis</text>
  <text x="550.0" y="286" text-anchor="middle" font-family="Helvetica,Arial,sans-serif" font-size="12" font-weight="700">.Calculus.Divergence</text>
  <text x="550.0" y="303" text-anchor="middle" font-family="Helvetica,Arial,sans-serif" font-size="9" fill="#334155">Divergence.lean; compiled 59; memory 58</text>
</g>

<g id="AutoSamplingTheory.TechnicalLemmas.Analysis.Calculus.Gradient">
  <path fill="#dff0e4" stroke="#2e7d59" stroke-width="1.8" d="M742,255 L1018,255 Q1030,255 1030,267 L1030,299 Q1030,311 1018,311 L742,311 Q730,311 730,299 L730,267 Q730,255 742,255 Z"/>
  <text x="880.0" y="271" text-anchor="middle" font-family="Helvetica,Arial,sans-serif" font-size="12" font-weight="700">TechnicalLemmas.Analysis</text>
  <text x="880.0" y="286" text-anchor="middle" font-family="Helvetica,Arial,sans-serif" font-size="12" font-weight="700">.Calculus.Gradient</text>
  <text x="880.0" y="303" text-anchor="middle" font-family="Helvetica,Arial,sans-serif" font-size="9" fill="#334155">Gradient.lean; compiled 10; memory 10</text>
</g>

<g id="AutoSamplingTheory.TechnicalLemmas.Analysis.Calculus.Laplacian">
  <path fill="#dff0e4" stroke="#2e7d59" stroke-width="1.8" d="M1072,255 L1348,255 Q1360,255 1360,267 L1360,299 Q1360,311 1348,311 L1072,311 Q1060,311 1060,299 L1060,267 Q1060,255 1072,255 Z"/>
  <text x="1210.0" y="271" text-anchor="middle" font-family="Helvetica,Arial,sans-serif" font-size="12" font-weight="700">TechnicalLemmas.Analysis</text>
  <text x="1210.0" y="286" text-anchor="middle" font-family="Helvetica,Arial,sans-serif" font-size="12" font-weight="700">.Calculus.Laplacian</text>
  <text x="1210.0" y="303" text-anchor="middle" font-family="Helvetica,Arial,sans-serif" font-size="9" fill="#334155">Laplacian.lean; compiled 3; memory 3</text>
</g>

<g id="AutoSamplingTheory.TechnicalLemmas.Analysis.Integrability">
  <path fill="#dff0e4" stroke="#2e7d59" stroke-width="1.8" d="M1402,255 L1708,255 Q1720,255 1720,267 L1720,299 Q1720,311 1708,311 L1402,311 Q1390,311 1390,299 L1390,267 Q1390,255 1402,255 Z"/>
  <text x="1555.0" y="271" text-anchor="middle" font-family="Helvetica,Arial,sans-serif" font-size="12" font-weight="700">TechnicalLemmas.Analysis</text>
  <text x="1555.0" y="286" text-anchor="middle" font-family="Helvetica,Arial,sans-serif" font-size="12" font-weight="700">.Integrability</text>
  <text x="1555.0" y="303" text-anchor="middle" font-family="Helvetica,Arial,sans-serif" font-size="9" fill="#334155">Integrability.lean; compiled 24; memory 22</text>
</g>

<g id="AutoSamplingTheory.TechnicalLemmas.Geometry.LogConcavity">
  <path fill="#dff0e4" stroke="#2e7d59" stroke-width="1.8" d="M82,320 L358,320 Q370,320 370,332 L370,364 Q370,376 358,376 L82,376 Q70,376 70,364 L70,332 Q70,320 82,320 Z"/>
  <text x="220.0" y="336" text-anchor="middle" font-family="Helvetica,Arial,sans-serif" font-size="12" font-weight="700">TechnicalLemmas.Geometry</text>
  <text x="220.0" y="351" text-anchor="middle" font-family="Helvetica,Arial,sans-serif" font-size="12" font-weight="700">.LogConcavity</text>
  <text x="220.0" y="368" text-anchor="middle" font-family="Helvetica,Arial,sans-serif" font-size="9" fill="#334155">LogConcavity.lean; compiled 40; memory 32</text>
</g>

<g id="AutoSamplingTheory.TechnicalLemmas.StochasticProcesses.WeakGenerator">
  <path fill="#dff0e4" stroke="#2e7d59" stroke-width="1.8" d="M412,320 L688,320 Q700,320 700,332 L700,364 Q700,376 688,376 L412,376 Q400,376 400,364 L400,332 Q400,320 412,320 Z"/>
  <text x="550.0" y="336" text-anchor="middle" font-family="Helvetica,Arial,sans-serif" font-size="12" font-weight="700">TechnicalLemmas.StochasticProcesses</text>
  <text x="550.0" y="351" text-anchor="middle" font-family="Helvetica,Arial,sans-serif" font-size="12" font-weight="700">.WeakGenerator</text>
  <text x="550.0" y="368" text-anchor="middle" font-family="Helvetica,Arial,sans-serif" font-size="9" fill="#334155">WeakGenerator.lean; compiled 4; memory 4</text>
</g>

<g id="AutoSamplingTheory.TechnicalLemmas.StochasticProcesses.FokkerPlanckAlgebra">
  <path fill="#dff0e4" stroke="#2e7d59" stroke-width="1.8" d="M742,320 L1048,320 Q1060,320 1060,332 L1060,364 Q1060,376 1048,376 L742,376 Q730,376 730,364 L730,332 Q730,320 742,320 Z"/>
  <text x="895.0" y="336" text-anchor="middle" font-family="Helvetica,Arial,sans-serif" font-size="12" font-weight="700">TechnicalLemmas.StochasticProcesses</text>
  <text x="895.0" y="351" text-anchor="middle" font-family="Helvetica,Arial,sans-serif" font-size="12" font-weight="700">.FokkerPlanckAlgebra</text>
  <text x="895.0" y="368" text-anchor="middle" font-family="Helvetica,Arial,sans-serif" font-size="9" fill="#334155">FokkerPlanckAlgebra.lean; compiled 2; memory 2</text>
</g>

<g id="AutoSamplingTheory.TechnicalLemmas.InformationTheory.DonskerVaradhan">
  <path fill="#dff0e4" stroke="#2e7d59" stroke-width="1.8" d="M1072,320 L1348,320 Q1360,320 1360,332 L1360,364 Q1360,376 1348,376 L1072,376 Q1060,376 1060,364 L1060,332 Q1060,320 1072,320 Z"/>
  <text x="1210.0" y="336" text-anchor="middle" font-family="Helvetica,Arial,sans-serif" font-size="12" font-weight="700">TechnicalLemmas.InformationTheory</text>
  <text x="1210.0" y="351" text-anchor="middle" font-family="Helvetica,Arial,sans-serif" font-size="12" font-weight="700">.DonskerVaradhan</text>
  <text x="1210.0" y="368" text-anchor="middle" font-family="Helvetica,Arial,sans-serif" font-size="9" fill="#334155">DonskerVaradhan.lean; compiled 8; memory 1</text>
</g>

<g id="AutoSamplingTheory.TechnicalLemmas.FunctionalInequalities.LogSobolev">
  <path fill="#dff0e4" stroke="#2e7d59" stroke-width="1.8" d="M1402,320 L1708,320 Q1720,320 1720,332 L1720,364 Q1720,376 1708,376 L1402,376 Q1390,376 1390,364 L1390,332 Q1390,320 1402,320 Z"/>
  <text x="1555.0" y="336" text-anchor="middle" font-family="Helvetica,Arial,sans-serif" font-size="12" font-weight="700">TechnicalLemmas.FuncInequalities</text>
  <text x="1555.0" y="351" text-anchor="middle" font-family="Helvetica,Arial,sans-serif" font-size="12" font-weight="700">.LogSobolev</text>
  <text x="1555.0" y="368" text-anchor="middle" font-family="Helvetica,Arial,sans-serif" font-size="9" fill="#334155">LogSobolev.lean; compiled 14; memory 1</text>
</g>

<g id="AutoSamplingTheory.TechnicalLemmas.Geometry.EuclideanSpaceCoordinates">
  <path fill="#dff0e4" stroke="#2e7d59" stroke-width="1.8" d="M82,390 L358,390 Q370,390 370,402 L370,432 Q370,444 358,444 L82,444 Q70,444 70,432 L70,402 Q70,390 82,390 Z"/>
  <text x="220.0" y="406" text-anchor="middle" font-family="Helvetica,Arial,sans-serif" font-size="12" font-weight="700">TechnicalLemmas.Geometry</text>
  <text x="220.0" y="421" text-anchor="middle" font-family="Helvetica,Arial,sans-serif" font-size="12" font-weight="700">.EuclideanSpaceCoordinates</text>
  <text x="220.0" y="438" text-anchor="middle" font-family="Helvetica,Arial,sans-serif" font-size="9" fill="#334155">EuclideanSpaceCoordinates.lean; compiled 2; memory 2</text>
</g>

<g id="AutoSamplingTheory.TechnicalLemmas.StochasticProcesses.Girsanov">
  <path fill="#dff0e4" stroke="#2e7d59" stroke-width="1.8" d="M412,390 L688,390 Q700,390 700,402 L700,432 Q700,444 688,444 L412,444 Q400,444 400,432 L400,402 Q400,390 412,390 Z"/>
  <text x="550.0" y="406" text-anchor="middle" font-family="Helvetica,Arial,sans-serif" font-size="12" font-weight="700">TechnicalLemmas.StochasticProcesses</text>
  <text x="550.0" y="421" text-anchor="middle" font-family="Helvetica,Arial,sans-serif" font-size="12" font-weight="700">.Girsanov</text>
  <text x="550.0" y="438" text-anchor="middle" font-family="Helvetica,Arial,sans-serif" font-size="9" fill="#334155">Girsanov.lean; compiled 5; memory 2</text>
</g>

<g id="AutoSamplingTheory.TechnicalLemmas.StochasticProcesses.Langevin">
  <path fill="#dff0e4" stroke="#2e7d59" stroke-width="1.8" d="M742,390 L1048,390 Q1060,390 1060,402 L1060,432 Q1060,444 1048,444 L742,444 Q730,444 730,432 L730,402 Q730,390 742,390 Z"/>
  <text x="895.0" y="406" text-anchor="middle" font-family="Helvetica,Arial,sans-serif" font-size="12" font-weight="700">TechnicalLemmas.StochasticProcesses</text>
  <text x="895.0" y="421" text-anchor="middle" font-family="Helvetica,Arial,sans-serif" font-size="12" font-weight="700">.Langevin</text>
  <text x="895.0" y="438" text-anchor="middle" font-family="Helvetica,Arial,sans-serif" font-size="9" fill="#334155">Langevin.lean; compiled 32; memory 31</text>
</g>

<g id="AutoSamplingTheory.TechnicalLemmas.Measure.RadonNikodym">
  <path fill="#dff0e4" stroke="#2e7d59" stroke-width="1.8" d="M82,455 L358,455 Q370,455 370,467 L370,497 Q370,509 358,509 L82,509 Q70,509 70,497 L70,467 Q70,455 82,455 Z"/>
  <text x="220.0" y="471" text-anchor="middle" font-family="Helvetica,Arial,sans-serif" font-size="12" font-weight="700">TechnicalLemmas.Measure</text>
  <text x="220.0" y="486" text-anchor="middle" font-family="Helvetica,Arial,sans-serif" font-size="12" font-weight="700">.RadonNikodym</text>
  <text x="220.0" y="503" text-anchor="middle" font-family="Helvetica,Arial,sans-serif" font-size="9" fill="#334155">RadonNikodym.lean; compiled 12; memory 9</text>
</g>

<g id="AutoSamplingTheory.TechnicalLemmas.Measure.Gibbs">
  <path fill="#dff0e4" stroke="#2e7d59" stroke-width="1.8" d="M412,455 L688,455 Q700,455 700,467 L700,497 Q700,509 688,509 L412,509 Q400,509 400,497 L400,467 Q400,455 412,455 Z"/>
  <text x="550.0" y="471" text-anchor="middle" font-family="Helvetica,Arial,sans-serif" font-size="12" font-weight="700">TechnicalLemmas.Measure</text>
  <text x="550.0" y="486" text-anchor="middle" font-family="Helvetica,Arial,sans-serif" font-size="12" font-weight="700">.Gibbs</text>
  <text x="550.0" y="503" text-anchor="middle" font-family="Helvetica,Arial,sans-serif" font-size="9" fill="#334155">Gibbs.lean; compiled 15; memory 10</text>
</g>

<g id="AutoSamplingTheory.TechnicalLemmas.Measure.GibbsIntegral">
  <path fill="#dff0e4" stroke="#2e7d59" stroke-width="1.8" d="M82,520 L358,520 Q370,520 370,532 L370,562 Q370,574 358,574 L82,574 Q70,574 70,562 L70,532 Q70,520 82,520 Z"/>
  <text x="220.0" y="536" text-anchor="middle" font-family="Helvetica,Arial,sans-serif" font-size="12" font-weight="700">TechnicalLemmas.Measure</text>
  <text x="220.0" y="551" text-anchor="middle" font-family="Helvetica,Arial,sans-serif" font-size="12" font-weight="700">.GibbsIntegral</text>
  <text x="220.0" y="568" text-anchor="middle" font-family="Helvetica,Arial,sans-serif" font-size="9" fill="#334155">GibbsIntegral.lean; compiled 3; memory 3</text>
</g>

<g id="AutoSamplingTheory.TechnicalLemmas.Probability">
  <path fill="#dff0e4" stroke="#2e7d59" stroke-width="1.8" d="M742,455 L1018,455 Q1030,455 1030,467 L1030,497 Q1030,509 1018,509 L742,509 Q730,509 730,497 L730,467 Q730,455 742,455 Z"/>
  <text x="880.0" y="471" text-anchor="middle" font-family="Helvetica,Arial,sans-serif" font-size="12" font-weight="700">TechnicalLemmas</text>
  <text x="880.0" y="486" text-anchor="middle" font-family="Helvetica,Arial,sans-serif" font-size="12" font-weight="700">.Probability</text>
  <text x="880.0" y="503" text-anchor="middle" font-family="Helvetica,Arial,sans-serif" font-size="9" fill="#334155">Probability.lean; compiled 0</text>
</g>

<g id="AutoSamplingTheory.TechnicalLemmas.ProbabilityDistributions">
  <path fill="#dff0e4" stroke="#2e7d59" stroke-width="1.8" d="M1072,455 L1348,455 Q1360,455 1360,467 L1360,497 Q1360,509 1348,509 L1072,509 Q1060,509 1060,497 L1060,467 Q1060,455 1072,455 Z"/>
  <text x="1210.0" y="471" text-anchor="middle" font-family="Helvetica,Arial,sans-serif" font-size="12" font-weight="700">TechnicalLemmas</text>
  <text x="1210.0" y="486" text-anchor="middle" font-family="Helvetica,Arial,sans-serif" font-size="12" font-weight="700">.ProbDistributions</text>
  <text x="1210.0" y="503" text-anchor="middle" font-family="Helvetica,Arial,sans-serif" font-size="9" fill="#334155">ProbabilityDistributions.lean; compiled 0</text>
</g>

<g id="AutoSamplingTheory.TechnicalLemmas.Analysis.Calculus">
  <path fill="#dff0e4" stroke="#2e7d59" stroke-width="1.8" d="M1402,455 L1708,455 Q1720,455 1720,467 L1720,497 Q1720,509 1708,509 L1402,509 Q1390,509 1390,497 L1390,467 Q1390,455 1402,455 Z"/>
  <text x="1555.0" y="471" text-anchor="middle" font-family="Helvetica,Arial,sans-serif" font-size="12" font-weight="700">TechnicalLemmas.Analysis</text>
  <text x="1555.0" y="486" text-anchor="middle" font-family="Helvetica,Arial,sans-serif" font-size="12" font-weight="700">.Calculus</text>
  <text x="1555.0" y="503" text-anchor="middle" font-family="Helvetica,Arial,sans-serif" font-size="9" fill="#334155">Calculus.lean; compiled 0</text>
</g>

<g id="AutoSamplingTheory.TechnicalLemmas.Geometry.StrongConvexity">
  <path fill="#dff0e4" stroke="#2e7d59" stroke-width="1.8" d="M412,520 L688,520 Q700,520 700,532 L700,562 Q700,574 688,574 L412,574 Q400,574 400,562 L400,532 Q400,520 412,520 Z"/>
  <text x="550.0" y="536" text-anchor="middle" font-family="Helvetica,Arial,sans-serif" font-size="12" font-weight="700">TechnicalLemmas.Geometry</text>
  <text x="550.0" y="551" text-anchor="middle" font-family="Helvetica,Arial,sans-serif" font-size="12" font-weight="700">.StrongConvexity</text>
  <text x="550.0" y="568" text-anchor="middle" font-family="Helvetica,Arial,sans-serif" font-size="9" fill="#334155">StrongConvexity.lean; compiled 4; memory 4</text>
</g>

<g id="AutoSamplingTheory.TechnicalLemmas.Measure.GibbsLogConcavity">
  <path fill="#dff0e4" stroke="#2e7d59" stroke-width="1.8" d="M742,520 L1048,520 Q1060,520 1060,532 L1060,562 Q1060,574 1048,574 L742,574 Q730,574 730,562 L730,532 Q730,520 742,520 Z"/>
  <text x="895.0" y="536" text-anchor="middle" font-family="Helvetica,Arial,sans-serif" font-size="12" font-weight="700">TechnicalLemmas.Measure</text>
  <text x="895.0" y="551" text-anchor="middle" font-family="Helvetica,Arial,sans-serif" font-size="12" font-weight="700">.GibbsLogConcavity</text>
  <text x="895.0" y="568" text-anchor="middle" font-family="Helvetica,Arial,sans-serif" font-size="9" fill="#334155">GibbsLogConcavity.lean; compiled 6; memory 6</text>
</g>

<g id="AutoSamplingTheory.TechnicalLemmas.Measure.Product">
  <path fill="#dff0e4" stroke="#2e7d59" stroke-width="1.8" d="M1072,520 L1348,520 Q1360,520 1360,532 L1360,562 Q1360,574 1348,574 L1072,574 Q1060,574 1060,562 L1060,532 Q1060,520 1072,520 Z"/>
  <text x="1210.0" y="536" text-anchor="middle" font-family="Helvetica,Arial,sans-serif" font-size="12" font-weight="700">TechnicalLemmas.Measure</text>
  <text x="1210.0" y="551" text-anchor="middle" font-family="Helvetica,Arial,sans-serif" font-size="12" font-weight="700">.Product</text>
  <text x="1210.0" y="568" text-anchor="middle" font-family="Helvetica,Arial,sans-serif" font-size="9" fill="#334155">Product.lean; compiled 5; memory 4</text>
</g>

<g id="AutoSamplingTheory.TechnicalLemmas.InformationTheory.Renyi">
  <path fill="#dff0e4" stroke="#2e7d59" stroke-width="1.8" d="M1402,520 L1708,520 Q1720,520 1720,532 L1720,562 Q1720,574 1708,574 L1402,574 Q1390,574 1390,562 L1390,532 Q1390,520 1402,520 Z"/>
  <text x="1555.0" y="536" text-anchor="middle" font-family="Helvetica,Arial,sans-serif" font-size="12" font-weight="700">TechnicalLemmas.InformationTheory</text>
  <text x="1555.0" y="551" text-anchor="middle" font-family="Helvetica,Arial,sans-serif" font-size="12" font-weight="700">.Renyi</text>
  <text x="1555.0" y="568" text-anchor="middle" font-family="Helvetica,Arial,sans-serif" font-size="9" fill="#334155">Renyi.lean; compiled 8; memory 4</text>
</g>

<g id="AutoSamplingTheory.TechnicalLemmas.Geometry">
  <path fill="#dff0e4" stroke="#2e7d59" stroke-width="1.8" d="M82,580 L358,580 Q370,580 370,592 L370,622 Q370,634 358,634 L82,634 Q70,634 70,622 L70,592 Q70,580 82,580 Z"/>
  <text x="220.0" y="596" text-anchor="middle" font-family="Helvetica,Arial,sans-serif" font-size="12" font-weight="700">TechnicalLemmas</text>
  <text x="220.0" y="611" text-anchor="middle" font-family="Helvetica,Arial,sans-serif" font-size="12" font-weight="700">.Geometry</text>
  <text x="220.0" y="628" text-anchor="middle" font-family="Helvetica,Arial,sans-serif" font-size="9" fill="#334155">Geometry.lean; compiled 0</text>
</g>

<g id="AutoSamplingTheory.TechnicalLemmas.StochasticProcesses">
  <path fill="#dff0e4" stroke="#2e7d59" stroke-width="1.8" d="M412,580 L718,580 Q730,580 730,592 L730,622 Q730,634 718,634 L412,634 Q400,634 400,622 L400,592 Q400,580 412,580 Z"/>
  <text x="565.0" y="596" text-anchor="middle" font-family="Helvetica,Arial,sans-serif" font-size="12" font-weight="700">TechnicalLemmas</text>
  <text x="565.0" y="611" text-anchor="middle" font-family="Helvetica,Arial,sans-serif" font-size="12" font-weight="700">.StochasticProcesses</text>
  <text x="565.0" y="628" text-anchor="middle" font-family="Helvetica,Arial,sans-serif" font-size="9" fill="#334155">StochasticProcesses.lean; compiled 0</text>
</g>

<g id="AutoSamplingTheory.TechnicalLemmas.InformationTheory">
  <path fill="#dff0e4" stroke="#2e7d59" stroke-width="1.8" d="M742,580 L1018,580 Q1030,580 1030,592 L1030,622 Q1030,634 1018,634 L742,634 Q730,634 730,622 L730,592 Q730,580 742,580 Z"/>
  <text x="880.0" y="596" text-anchor="middle" font-family="Helvetica,Arial,sans-serif" font-size="12" font-weight="700">TechnicalLemmas</text>
  <text x="880.0" y="611" text-anchor="middle" font-family="Helvetica,Arial,sans-serif" font-size="12" font-weight="700">.InformationTheory</text>
  <text x="880.0" y="628" text-anchor="middle" font-family="Helvetica,Arial,sans-serif" font-size="9" fill="#334155">InformationTheory.lean; compiled 0</text>
</g>

<g id="AutoSamplingTheory.TechnicalLemmas.Analysis">
  <path fill="#dff0e4" stroke="#2e7d59" stroke-width="1.8" d="M1072,580 L1348,580 Q1360,580 1360,592 L1360,622 Q1360,634 1348,634 L1072,634 Q1060,634 1060,622 L1060,592 Q1060,580 1072,580 Z"/>
  <text x="1210.0" y="596" text-anchor="middle" font-family="Helvetica,Arial,sans-serif" font-size="12" font-weight="700">TechnicalLemmas</text>
  <text x="1210.0" y="611" text-anchor="middle" font-family="Helvetica,Arial,sans-serif" font-size="12" font-weight="700">.Analysis</text>
  <text x="1210.0" y="628" text-anchor="middle" font-family="Helvetica,Arial,sans-serif" font-size="9" fill="#334155">Analysis.lean; compiled 0</text>
</g>

<g id="AutoSamplingTheory.TechnicalLemmas.FunctionalInequalities">
  <path fill="#dff0e4" stroke="#2e7d59" stroke-width="1.8" d="M1402,580 L1708,580 Q1720,580 1720,592 L1720,622 Q1720,634 1708,634 L1402,634 Q1390,634 1390,622 L1390,592 Q1390,580 1402,580 Z"/>
  <text x="1555.0" y="596" text-anchor="middle" font-family="Helvetica,Arial,sans-serif" font-size="12" font-weight="700">TechnicalLemmas</text>
  <text x="1555.0" y="611" text-anchor="middle" font-family="Helvetica,Arial,sans-serif" font-size="12" font-weight="700">.FuncInequalities</text>
  <text x="1555.0" y="628" text-anchor="middle" font-family="Helvetica,Arial,sans-serif" font-size="9" fill="#334155">FunctionalInequalities.lean; compiled 0</text>
</g>

<g id="AutoSamplingTheory.TechnicalLemmas">
  <path fill="#dff0e4" stroke="#2e7d59" stroke-width="1.8" d="M777,705 L1083,705 Q1095,705 1095,717 L1095,751 Q1095,763 1083,763 L777,763 Q765,763 765,751 L765,717 Q765,705 777,705 Z"/>
  <text x="930.0" y="721" text-anchor="middle" font-family="Helvetica,Arial,sans-serif" font-size="12" font-weight="700">AutoSamplingTheory</text>
  <text x="930.0" y="736" text-anchor="middle" font-family="Helvetica,Arial,sans-serif" font-size="12" font-weight="700">.TechnicalLemmas</text>
  <text x="930.0" y="753" text-anchor="middle" font-family="Helvetica,Arial,sans-serif" font-size="9" fill="#334155">parent import surface for reusable lemmas</text>
</g>

<g id="AutoSamplingTheory">
  <path fill="#eaf2ff" stroke="#2563eb" stroke-width="1.8" d="M777,805 L1083,805 Q1095,805 1095,817 L1095,847 Q1095,859 1083,859 L777,859 Q765,859 765,847 L765,817 Q765,805 777,805 Z"/>
  <text x="930.0" y="821" text-anchor="middle" font-family="Helvetica,Arial,sans-serif" font-size="12" font-weight="700">AutoSamplingTheory</text>
  
  <text x="930.0" y="853" text-anchor="middle" font-family="Helvetica,Arial,sans-serif" font-size="9" fill="#334155">root public import surface</text>
</g>
</g>
<g id="legend">
  <rect x="60" y="845" width="520" height="105" rx="8" fill="#f8fafc" stroke="#cbd5e1"/>
  <text x="78" y="869" font-family="Helvetica,Arial,sans-serif" font-size="13" font-weight="700">Legend</text>
  <rect x="78" y="883" width="18" height="12" fill="#dff0e4" stroke="#2e7d59"/><text x="104" y="894" font-family="Helvetica,Arial,sans-serif" font-size="11">Canonical Mathlib-ready candidate module: compiled local reusable leaves</text>
  <rect x="78" y="905" width="18" height="12" fill="#eaf2ff" stroke="#2563eb"/><text x="104" y="916" font-family="Helvetica,Arial,sans-serif" font-size="11">Root public import surface</text>
  <text x="78" y="938" font-family="Helvetica,Arial,sans-serif" font-size="11" fill="#475569">Omitted from the main graph: SALD/RMFLD consumers, SALDExtracted quarantine, compatibility files, registry metadata, and external references.</text>
  <text x="1260" y="955" font-family="Helvetica,Arial,sans-serif" font-size="10" fill="#64748b">Generated 2026-08-02 02:28:29 by tools/astis.py module-graph-refresh</text>
</g>
</svg>
