<?xml version="1.0" encoding="UTF-8" standalone="no"?>
<svg width="1500" height="880" viewBox="0 0 1500 880" xmlns="http://www.w3.org/2000/svg">
<defs>
  <marker id="arrowStatus" markerWidth="8" markerHeight="6" refX="7" refY="3" orient="auto">
    <polygon points="0 0, 8 3, 0 6" fill="#94a3b8"/>
  </marker>
</defs>
<rect width="1500" height="880" fill="white"/>
<text x="750" y="30" text-anchor="middle" font-family="Helvetica,Arial,sans-serif" font-size="24" font-weight="700" fill="#1f2933">Log-Concave Sampling Mathlib-Ready Lean Tree Status</text>
<g id="edges">
<path d="M 765.0 110.0 C 765.0 125.0, 135.0 125.0, 135.0 140.0" fill="none" stroke="#94a3b8" stroke-width="1.1" marker-end="url(#arrowStatus)"/>
<path d="M 135.0 192.0 C 135.0 206.0, 135.0 206.0, 135.0 220.0" fill="none" stroke="#94a3b8" stroke-width="1.1" marker-end="url(#arrowStatus)"/>
<path d="M 135.0 192.0 C 135.0 234.0, 135.0 234.0, 135.0 276.0" fill="none" stroke="#94a3b8" stroke-width="1.1" marker-end="url(#arrowStatus)"/>
<path d="M 135.0 192.0 C 135.0 262.0, 135.0 262.0, 135.0 332.0" fill="none" stroke="#94a3b8" stroke-width="1.1" marker-end="url(#arrowStatus)"/>
<path d="M 135.0 192.0 C 135.0 290.0, 135.0 290.0, 135.0 388.0" fill="none" stroke="#94a3b8" stroke-width="1.1" marker-end="url(#arrowStatus)"/>
<path d="M 765.0 110.0 C 765.0 125.0, 380.0 125.0, 380.0 140.0" fill="none" stroke="#94a3b8" stroke-width="1.1" marker-end="url(#arrowStatus)"/>
<path d="M 380.0 192.0 C 380.0 206.0, 380.0 206.0, 380.0 220.0" fill="none" stroke="#94a3b8" stroke-width="1.1" marker-end="url(#arrowStatus)"/>
<path d="M 380.0 192.0 C 380.0 234.0, 380.0 234.0, 380.0 276.0" fill="none" stroke="#94a3b8" stroke-width="1.1" marker-end="url(#arrowStatus)"/>
<path d="M 380.0 192.0 C 380.0 262.0, 380.0 262.0, 380.0 332.0" fill="none" stroke="#94a3b8" stroke-width="1.1" marker-end="url(#arrowStatus)"/>
<path d="M 380.0 192.0 C 380.0 290.0, 380.0 290.0, 380.0 388.0" fill="none" stroke="#94a3b8" stroke-width="1.1" marker-end="url(#arrowStatus)"/>
<path d="M 380.0 192.0 C 380.0 318.0, 380.0 318.0, 380.0 444.0" fill="none" stroke="#94a3b8" stroke-width="1.1" marker-end="url(#arrowStatus)"/>
<path d="M 380.0 192.0 C 380.0 346.0, 380.0 346.0, 380.0 500.0" fill="none" stroke="#94a3b8" stroke-width="1.1" marker-end="url(#arrowStatus)"/>
<path d="M 380.0 192.0 C 380.0 374.0, 380.0 374.0, 380.0 556.0" fill="none" stroke="#94a3b8" stroke-width="1.1" marker-end="url(#arrowStatus)"/>
<path d="M 380.0 192.0 C 380.0 402.0, 380.0 402.0, 380.0 612.0" fill="none" stroke="#94a3b8" stroke-width="1.1" marker-end="url(#arrowStatus)"/>
<path d="M 380.0 192.0 C 380.0 430.0, 380.0 430.0, 380.0 668.0" fill="none" stroke="#94a3b8" stroke-width="1.1" marker-end="url(#arrowStatus)"/>
<path d="M 380.0 192.0 C 380.0 458.0, 380.0 458.0, 380.0 724.0" fill="none" stroke="#94a3b8" stroke-width="1.1" marker-end="url(#arrowStatus)"/>
<path d="M 765.0 110.0 C 765.0 125.0, 625.0 125.0, 625.0 140.0" fill="none" stroke="#94a3b8" stroke-width="1.1" marker-end="url(#arrowStatus)"/>
<path d="M 625.0 192.0 C 625.0 206.0, 625.0 206.0, 625.0 220.0" fill="none" stroke="#94a3b8" stroke-width="1.1" marker-end="url(#arrowStatus)"/>
<path d="M 625.0 192.0 C 625.0 234.0, 625.0 234.0, 625.0 276.0" fill="none" stroke="#94a3b8" stroke-width="1.1" marker-end="url(#arrowStatus)"/>
<path d="M 625.0 192.0 C 625.0 262.0, 625.0 262.0, 625.0 332.0" fill="none" stroke="#94a3b8" stroke-width="1.1" marker-end="url(#arrowStatus)"/>
<path d="M 625.0 192.0 C 625.0 290.0, 625.0 290.0, 625.0 388.0" fill="none" stroke="#94a3b8" stroke-width="1.1" marker-end="url(#arrowStatus)"/>
<path d="M 625.0 192.0 C 625.0 318.0, 625.0 318.0, 625.0 444.0" fill="none" stroke="#94a3b8" stroke-width="1.1" marker-end="url(#arrowStatus)"/>
<path d="M 625.0 192.0 C 625.0 346.0, 625.0 346.0, 625.0 500.0" fill="none" stroke="#94a3b8" stroke-width="1.1" marker-end="url(#arrowStatus)"/>
<path d="M 625.0 192.0 C 625.0 374.0, 625.0 374.0, 625.0 556.0" fill="none" stroke="#94a3b8" stroke-width="1.1" marker-end="url(#arrowStatus)"/>
<path d="M 625.0 192.0 C 625.0 402.0, 625.0 402.0, 625.0 612.0" fill="none" stroke="#94a3b8" stroke-width="1.1" marker-end="url(#arrowStatus)"/>
<path d="M 625.0 192.0 C 625.0 430.0, 625.0 430.0, 625.0 668.0" fill="none" stroke="#94a3b8" stroke-width="1.1" marker-end="url(#arrowStatus)"/>
<path d="M 765.0 110.0 C 765.0 125.0, 870.0 125.0, 870.0 140.0" fill="none" stroke="#94a3b8" stroke-width="1.1" marker-end="url(#arrowStatus)"/>
<path d="M 870.0 192.0 C 870.0 206.0, 870.0 206.0, 870.0 220.0" fill="none" stroke="#94a3b8" stroke-width="1.1" marker-end="url(#arrowStatus)"/>
<path d="M 870.0 192.0 C 870.0 234.0, 870.0 234.0, 870.0 276.0" fill="none" stroke="#94a3b8" stroke-width="1.1" marker-end="url(#arrowStatus)"/>
<path d="M 870.0 192.0 C 870.0 262.0, 870.0 262.0, 870.0 332.0" fill="none" stroke="#94a3b8" stroke-width="1.1" marker-end="url(#arrowStatus)"/>
<path d="M 765.0 110.0 C 765.0 125.0, 1115.0 125.0, 1115.0 140.0" fill="none" stroke="#94a3b8" stroke-width="1.1" marker-end="url(#arrowStatus)"/>
<path d="M 1115.0 192.0 C 1115.0 206.0, 1115.0 206.0, 1115.0 220.0" fill="none" stroke="#94a3b8" stroke-width="1.1" marker-end="url(#arrowStatus)"/>
<path d="M 1115.0 192.0 C 1115.0 234.0, 1115.0 234.0, 1115.0 276.0" fill="none" stroke="#94a3b8" stroke-width="1.1" marker-end="url(#arrowStatus)"/>
<path d="M 1115.0 192.0 C 1115.0 262.0, 1115.0 262.0, 1115.0 332.0" fill="none" stroke="#94a3b8" stroke-width="1.1" marker-end="url(#arrowStatus)"/>
<path d="M 1115.0 192.0 C 1115.0 290.0, 1115.0 290.0, 1115.0 388.0" fill="none" stroke="#94a3b8" stroke-width="1.1" marker-end="url(#arrowStatus)"/>
<path d="M 1115.0 192.0 C 1115.0 318.0, 1115.0 318.0, 1115.0 444.0" fill="none" stroke="#94a3b8" stroke-width="1.1" marker-end="url(#arrowStatus)"/>
<path d="M 1115.0 192.0 C 1115.0 346.0, 1115.0 346.0, 1115.0 500.0" fill="none" stroke="#94a3b8" stroke-width="1.1" marker-end="url(#arrowStatus)"/>
<path d="M 1115.0 192.0 C 1115.0 374.0, 1115.0 374.0, 1115.0 556.0" fill="none" stroke="#94a3b8" stroke-width="1.1" marker-end="url(#arrowStatus)"/>
<path d="M 1115.0 192.0 C 1115.0 402.0, 1115.0 402.0, 1115.0 612.0" fill="none" stroke="#94a3b8" stroke-width="1.1" marker-end="url(#arrowStatus)"/>
<path d="M 1115.0 192.0 C 1115.0 430.0, 1115.0 430.0, 1115.0 668.0" fill="none" stroke="#94a3b8" stroke-width="1.1" marker-end="url(#arrowStatus)"/>
<path d="M 1115.0 192.0 C 1115.0 458.0, 1115.0 458.0, 1115.0 724.0" fill="none" stroke="#94a3b8" stroke-width="1.1" marker-end="url(#arrowStatus)"/>
<path d="M 1115.0 192.0 C 1115.0 486.0, 1115.0 486.0, 1115.0 780.0" fill="none" stroke="#94a3b8" stroke-width="1.1" marker-end="url(#arrowStatus)"/>
<path d="M 765.0 110.0 C 765.0 125.0, 1360.0 125.0, 1360.0 140.0" fill="none" stroke="#94a3b8" stroke-width="1.1" marker-end="url(#arrowStatus)"/>
<path d="M 1360.0 192.0 C 1360.0 206.0, 1360.0 206.0, 1360.0 220.0" fill="none" stroke="#94a3b8" stroke-width="1.1" marker-end="url(#arrowStatus)"/>
<path d="M 1360.0 192.0 C 1360.0 234.0, 1360.0 234.0, 1360.0 276.0" fill="none" stroke="#94a3b8" stroke-width="1.1" marker-end="url(#arrowStatus)"/>
<path d="M 1360.0 192.0 C 1360.0 262.0, 1360.0 262.0, 1360.0 332.0" fill="none" stroke="#94a3b8" stroke-width="1.1" marker-end="url(#arrowStatus)"/>
</g>
<g id="nodes">
<g id="root">
  <rect x="555" y="52" width="420" height="58" rx="7" fill="#f8fafc" stroke="#475569" stroke-width="1.8"/>
  <text x="765.0" y="72" text-anchor="middle" font-family="Helvetica,Arial,sans-serif" font-size="12" font-weight="700" fill="#0f172a">ASTIS-CHEWI-001 Lean tree</text>
  <text x="765.0" y="90" text-anchor="middle" font-family="Helvetica,Arial,sans-serif" font-size="10" fill="#0f172a">blue = compiled locally; red = todo</text>
</g>
<g id="MEAS-KERN">
  <rect x="30" y="140" width="210" height="52" rx="7" fill="#f8fafc" stroke="#475569" stroke-width="1.8"/>
  <text x="135.0" y="160" text-anchor="middle" font-family="Helvetica,Arial,sans-serif" font-size="12" font-weight="700" fill="#0f172a">MEAS/KERN</text>
  <text x="135.0" y="178" text-anchor="middle" font-family="Helvetica,Arial,sans-serif" font-size="10" fill="#0f172a">shared root</text>
</g>
<g id="MEAS-KERN-Probability.LawMap">
  <rect x="30" y="220" width="210" height="46" rx="7" fill="#dbeafe" stroke="#2563eb" stroke-width="1.8"/>
  <text x="135.0" y="240" text-anchor="middle" font-family="Helvetica,Arial,sans-serif" font-size="12" font-weight="700" fill="#0f172a">Probability.LawMap</text>
  <text x="135.0" y="258" text-anchor="middle" font-family="Helvetica,Arial,sans-serif" font-size="10" fill="#0f172a">compiled</text>
</g>
<g id="MEAS-KERN-Probability.ConditionalKernel">
  <rect x="30" y="276" width="210" height="46" rx="7" fill="#dbeafe" stroke="#2563eb" stroke-width="1.8"/>
  <text x="135.0" y="296" text-anchor="middle" font-family="Helvetica,Arial,sans-serif" font-size="12" font-weight="700" fill="#0f172a">Probability.ConditionalKernel</text>
  <text x="135.0" y="314" text-anchor="middle" font-family="Helvetica,Arial,sans-serif" font-size="10" fill="#0f172a">compiled</text>
</g>
<g id="MEAS-KERN-Measure.Product">
  <rect x="30" y="332" width="210" height="46" rx="7" fill="#dbeafe" stroke="#2563eb" stroke-width="1.8"/>
  <text x="135.0" y="352" text-anchor="middle" font-family="Helvetica,Arial,sans-serif" font-size="12" font-weight="700" fill="#0f172a">Measure.Product</text>
  <text x="135.0" y="370" text-anchor="middle" font-family="Helvetica,Arial,sans-serif" font-size="10" fill="#0f172a">compiled</text>
</g>
<g id="MEAS-KERN-Measure.Transport">
  <rect x="30" y="388" width="210" height="46" rx="7" fill="#fee2e2" stroke="#dc2626" stroke-width="1.8"/>
  <text x="135.0" y="408" text-anchor="middle" font-family="Helvetica,Arial,sans-serif" font-size="12" font-weight="700" fill="#450a0a">Measure.Transport</text>
  <text x="135.0" y="426" text-anchor="middle" font-family="Helvetica,Arial,sans-serif" font-size="10" fill="#450a0a">todo</text>
</g>
<g id="DENS-CONV">
  <rect x="275" y="140" width="210" height="52" rx="7" fill="#f8fafc" stroke="#475569" stroke-width="1.8"/>
  <text x="380.0" y="160" text-anchor="middle" font-family="Helvetica,Arial,sans-serif" font-size="12" font-weight="700" fill="#0f172a">DENS/CONV</text>
  <text x="380.0" y="178" text-anchor="middle" font-family="Helvetica,Arial,sans-serif" font-size="10" fill="#0f172a">shared root</text>
</g>
<g id="DENS-CONV-Geometry.LogConcavity">
  <rect x="275" y="220" width="210" height="46" rx="7" fill="#dbeafe" stroke="#2563eb" stroke-width="1.8"/>
  <text x="380.0" y="240" text-anchor="middle" font-family="Helvetica,Arial,sans-serif" font-size="12" font-weight="700" fill="#0f172a">Geometry.LogConcavity</text>
  <text x="380.0" y="258" text-anchor="middle" font-family="Helvetica,Arial,sans-serif" font-size="10" fill="#0f172a">compiled</text>
</g>
<g id="DENS-CONV-Measure.RadonNikodym">
  <rect x="275" y="276" width="210" height="46" rx="7" fill="#dbeafe" stroke="#2563eb" stroke-width="1.8"/>
  <text x="380.0" y="296" text-anchor="middle" font-family="Helvetica,Arial,sans-serif" font-size="12" font-weight="700" fill="#0f172a">Measure.RadonNikodym</text>
  <text x="380.0" y="314" text-anchor="middle" font-family="Helvetica,Arial,sans-serif" font-size="10" fill="#0f172a">compiled</text>
</g>
<g id="DENS-CONV-Pi-withDensity">
  <rect x="275" y="332" width="210" height="46" rx="7" fill="#dbeafe" stroke="#2563eb" stroke-width="1.8"/>
  <text x="380.0" y="352" text-anchor="middle" font-family="Helvetica,Arial,sans-serif" font-size="12" font-weight="700" fill="#0f172a">Pi withDensity</text>
  <text x="380.0" y="370" text-anchor="middle" font-family="Helvetica,Arial,sans-serif" font-size="10" fill="#0f172a">compiled</text>
</g>
<g id="DENS-CONV-Measure.Gibbs">
  <rect x="275" y="388" width="210" height="46" rx="7" fill="#dbeafe" stroke="#2563eb" stroke-width="1.8"/>
  <text x="380.0" y="408" text-anchor="middle" font-family="Helvetica,Arial,sans-serif" font-size="12" font-weight="700" fill="#0f172a">Measure.Gibbs</text>
  <text x="380.0" y="426" text-anchor="middle" font-family="Helvetica,Arial,sans-serif" font-size="10" fill="#0f172a">compiled</text>
</g>
<g id="DENS-CONV-Gibbs-integral-rewrite">
  <rect x="275" y="444" width="210" height="46" rx="7" fill="#dbeafe" stroke="#2563eb" stroke-width="1.8"/>
  <text x="380.0" y="464" text-anchor="middle" font-family="Helvetica,Arial,sans-serif" font-size="12" font-weight="700" fill="#0f172a">Gibbs integral rewrite</text>
  <text x="380.0" y="482" text-anchor="middle" font-family="Helvetica,Arial,sans-serif" font-size="10" fill="#0f172a">compiled</text>
</g>
<g id="DENS-CONV-Potential-envelope">
  <rect x="275" y="500" width="210" height="46" rx="7" fill="#dbeafe" stroke="#2563eb" stroke-width="1.8"/>
  <text x="380.0" y="520" text-anchor="middle" font-family="Helvetica,Arial,sans-serif" font-size="12" font-weight="700" fill="#0f172a">Potential envelope</text>
  <text x="380.0" y="538" text-anchor="middle" font-family="Helvetica,Arial,sans-serif" font-size="10" fill="#0f172a">compiled</text>
</g>
<g id="DENS-CONV-KLDensity-DV">
  <rect x="275" y="556" width="210" height="46" rx="7" fill="#dbeafe" stroke="#2563eb" stroke-width="1.8"/>
  <text x="380.0" y="576" text-anchor="middle" font-family="Helvetica,Arial,sans-serif" font-size="12" font-weight="700" fill="#0f172a">KLDensity / DV</text>
  <text x="380.0" y="594" text-anchor="middle" font-family="Helvetica,Arial,sans-serif" font-size="10" fill="#0f172a">compiled</text>
</g>
<g id="DENS-CONV-Renyi-density">
  <rect x="275" y="612" width="210" height="46" rx="7" fill="#dbeafe" stroke="#2563eb" stroke-width="1.8"/>
  <text x="380.0" y="632" text-anchor="middle" font-family="Helvetica,Arial,sans-serif" font-size="12" font-weight="700" fill="#0f172a">Renyi density</text>
  <text x="380.0" y="650" text-anchor="middle" font-family="Helvetica,Arial,sans-serif" font-size="10" fill="#0f172a">compiled</text>
</g>
<g id="DENS-CONV-Prekopa-Brunn">
  <rect x="275" y="668" width="210" height="46" rx="7" fill="#fee2e2" stroke="#dc2626" stroke-width="1.8"/>
  <text x="380.0" y="688" text-anchor="middle" font-family="Helvetica,Arial,sans-serif" font-size="12" font-weight="700" fill="#450a0a">Prekopa / Brunn</text>
  <text x="380.0" y="706" text-anchor="middle" font-family="Helvetica,Arial,sans-serif" font-size="10" fill="#450a0a">todo</text>
</g>
<g id="DENS-CONV-Coercivity-envelope">
  <rect x="275" y="724" width="210" height="46" rx="7" fill="#fee2e2" stroke="#dc2626" stroke-width="1.8"/>
  <text x="380.0" y="744" text-anchor="middle" font-family="Helvetica,Arial,sans-serif" font-size="12" font-weight="700" fill="#450a0a">Coercivity envelope</text>
  <text x="380.0" y="762" text-anchor="middle" font-family="Helvetica,Arial,sans-serif" font-size="10" fill="#450a0a">todo</text>
</g>
<g id="GAUSS">
  <rect x="520" y="140" width="210" height="52" rx="7" fill="#f8fafc" stroke="#475569" stroke-width="1.8"/>
  <text x="625.0" y="160" text-anchor="middle" font-family="Helvetica,Arial,sans-serif" font-size="12" font-weight="700" fill="#0f172a">GAUSS</text>
  <text x="625.0" y="178" text-anchor="middle" font-family="Helvetica,Arial,sans-serif" font-size="10" fill="#0f172a">shared root</text>
</g>
<g id="GAUSS-Gaussian-coordinates">
  <rect x="520" y="220" width="210" height="46" rx="7" fill="#dbeafe" stroke="#2563eb" stroke-width="1.8"/>
  <text x="625.0" y="240" text-anchor="middle" font-family="Helvetica,Arial,sans-serif" font-size="12" font-weight="700" fill="#0f172a">Gaussian coordinates</text>
  <text x="625.0" y="258" text-anchor="middle" font-family="Helvetica,Arial,sans-serif" font-size="10" fill="#0f172a">compiled</text>
</g>
<g id="GAUSS-Linear-forms">
  <rect x="520" y="276" width="210" height="46" rx="7" fill="#dbeafe" stroke="#2563eb" stroke-width="1.8"/>
  <text x="625.0" y="296" text-anchor="middle" font-family="Helvetica,Arial,sans-serif" font-size="12" font-weight="700" fill="#0f172a">Linear forms</text>
  <text x="625.0" y="314" text-anchor="middle" font-family="Helvetica,Arial,sans-serif" font-size="10" fill="#0f172a">compiled</text>
</g>
<g id="GAUSS-MGF-normalizer">
  <rect x="520" y="332" width="210" height="46" rx="7" fill="#dbeafe" stroke="#2563eb" stroke-width="1.8"/>
  <text x="625.0" y="352" text-anchor="middle" font-family="Helvetica,Arial,sans-serif" font-size="12" font-weight="700" fill="#0f172a">MGF normalizer</text>
  <text x="625.0" y="370" text-anchor="middle" font-family="Helvetica,Arial,sans-serif" font-size="10" fill="#0f172a">compiled</text>
</g>
<g id="GAUSS-Scalar-shift">
  <rect x="520" y="388" width="210" height="46" rx="7" fill="#dbeafe" stroke="#2563eb" stroke-width="1.8"/>
  <text x="625.0" y="408" text-anchor="middle" font-family="Helvetica,Arial,sans-serif" font-size="12" font-weight="700" fill="#0f172a">Scalar shift</text>
  <text x="625.0" y="426" text-anchor="middle" font-family="Helvetica,Arial,sans-serif" font-size="10" fill="#0f172a">compiled</text>
</g>
<g id="GAUSS-Product-shift">
  <rect x="520" y="444" width="210" height="46" rx="7" fill="#dbeafe" stroke="#2563eb" stroke-width="1.8"/>
  <text x="625.0" y="464" text-anchor="middle" font-family="Helvetica,Arial,sans-serif" font-size="12" font-weight="700" fill="#0f172a">Product shift</text>
  <text x="625.0" y="482" text-anchor="middle" font-family="Helvetica,Arial,sans-serif" font-size="10" fill="#0f172a">compiled</text>
</g>
<g id="GAUSS-Change-of-measure">
  <rect x="520" y="500" width="210" height="46" rx="7" fill="#dbeafe" stroke="#2563eb" stroke-width="1.8"/>
  <text x="625.0" y="520" text-anchor="middle" font-family="Helvetica,Arial,sans-serif" font-size="12" font-weight="700" fill="#0f172a">Change of measure</text>
  <text x="625.0" y="538" text-anchor="middle" font-family="Helvetica,Arial,sans-serif" font-size="10" fill="#0f172a">compiled</text>
</g>
<g id="GAUSS-Euclidean-pushforward">
  <rect x="520" y="556" width="210" height="46" rx="7" fill="#dbeafe" stroke="#2563eb" stroke-width="1.8"/>
  <text x="625.0" y="576" text-anchor="middle" font-family="Helvetica,Arial,sans-serif" font-size="12" font-weight="700" fill="#0f172a">Euclidean pushforward</text>
  <text x="625.0" y="594" text-anchor="middle" font-family="Helvetica,Arial,sans-serif" font-size="10" fill="#0f172a">compiled</text>
</g>
<g id="GAUSS-stdGaussian-inner-form">
  <rect x="520" y="612" width="210" height="46" rx="7" fill="#dbeafe" stroke="#2563eb" stroke-width="1.8"/>
  <text x="625.0" y="632" text-anchor="middle" font-family="Helvetica,Arial,sans-serif" font-size="12" font-weight="700" fill="#0f172a">stdGaussian inner form</text>
  <text x="625.0" y="650" text-anchor="middle" font-family="Helvetica,Arial,sans-serif" font-size="10" fill="#0f172a">compiled</text>
</g>
<g id="GAUSS-Path-space-packaging">
  <rect x="520" y="668" width="210" height="46" rx="7" fill="#fee2e2" stroke="#dc2626" stroke-width="1.8"/>
  <text x="625.0" y="688" text-anchor="middle" font-family="Helvetica,Arial,sans-serif" font-size="12" font-weight="700" fill="#450a0a">Path-space packaging</text>
  <text x="625.0" y="706" text-anchor="middle" font-family="Helvetica,Arial,sans-serif" font-size="10" fill="#450a0a">todo</text>
</g>
<g id="FI">
  <rect x="765" y="140" width="210" height="52" rx="7" fill="#f8fafc" stroke="#475569" stroke-width="1.8"/>
  <text x="870.0" y="160" text-anchor="middle" font-family="Helvetica,Arial,sans-serif" font-size="12" font-weight="700" fill="#0f172a">FI</text>
  <text x="870.0" y="178" text-anchor="middle" font-family="Helvetica,Arial,sans-serif" font-size="10" fill="#0f172a">shared root</text>
</g>
<g id="FI-LogSobolev-bookkeeping">
  <rect x="765" y="220" width="210" height="46" rx="7" fill="#dbeafe" stroke="#2563eb" stroke-width="1.8"/>
  <text x="870.0" y="240" text-anchor="middle" font-family="Helvetica,Arial,sans-serif" font-size="12" font-weight="700" fill="#0f172a">LogSobolev bookkeeping</text>
  <text x="870.0" y="258" text-anchor="middle" font-family="Helvetica,Arial,sans-serif" font-size="10" fill="#0f172a">compiled</text>
</g>
<g id="FI-PI-TI-Isoperimetry">
  <rect x="765" y="276" width="210" height="46" rx="7" fill="#fee2e2" stroke="#dc2626" stroke-width="1.8"/>
  <text x="870.0" y="296" text-anchor="middle" font-family="Helvetica,Arial,sans-serif" font-size="12" font-weight="700" fill="#450a0a">PI / TI / Isoperimetry</text>
  <text x="870.0" y="314" text-anchor="middle" font-family="Helvetica,Arial,sans-serif" font-size="10" fill="#450a0a">todo</text>
</g>
<g id="FI-Preservation">
  <rect x="765" y="332" width="210" height="46" rx="7" fill="#fee2e2" stroke="#dc2626" stroke-width="1.8"/>
  <text x="870.0" y="352" text-anchor="middle" font-family="Helvetica,Arial,sans-serif" font-size="12" font-weight="700" fill="#450a0a">Preservation</text>
  <text x="870.0" y="370" text-anchor="middle" font-family="Helvetica,Arial,sans-serif" font-size="10" fill="#450a0a">todo</text>
</g>
<g id="SDE-PATH">
  <rect x="1010" y="140" width="210" height="52" rx="7" fill="#f8fafc" stroke="#475569" stroke-width="1.8"/>
  <text x="1115.0" y="160" text-anchor="middle" font-family="Helvetica,Arial,sans-serif" font-size="12" font-weight="700" fill="#0f172a">SDE/PATH</text>
  <text x="1115.0" y="178" text-anchor="middle" font-family="Helvetica,Arial,sans-serif" font-size="10" fill="#0f172a">shared root</text>
</g>
<g id="SDE-PATH-WeakGenerator">
  <rect x="1010" y="220" width="210" height="46" rx="7" fill="#dbeafe" stroke="#2563eb" stroke-width="1.8"/>
  <text x="1115.0" y="240" text-anchor="middle" font-family="Helvetica,Arial,sans-serif" font-size="12" font-weight="700" fill="#0f172a">WeakGenerator</text>
  <text x="1115.0" y="258" text-anchor="middle" font-family="Helvetica,Arial,sans-serif" font-size="10" fill="#0f172a">compiled</text>
</g>
<g id="SDE-PATH-FokkerPlanck-algebra">
  <rect x="1010" y="276" width="210" height="46" rx="7" fill="#dbeafe" stroke="#2563eb" stroke-width="1.8"/>
  <text x="1115.0" y="296" text-anchor="middle" font-family="Helvetica,Arial,sans-serif" font-size="12" font-weight="700" fill="#0f172a">FokkerPlanck algebra</text>
  <text x="1115.0" y="314" text-anchor="middle" font-family="Helvetica,Arial,sans-serif" font-size="10" fill="#0f172a">compiled</text>
</g>
<g id="SDE-PATH-Langevin-expression-algebra">
  <rect x="1010" y="332" width="210" height="46" rx="7" fill="#dbeafe" stroke="#2563eb" stroke-width="1.8"/>
  <text x="1115.0" y="352" text-anchor="middle" font-family="Helvetica,Arial,sans-serif" font-size="12" font-weight="700" fill="#0f172a">Langevin expression/algebra</text>
  <text x="1115.0" y="370" text-anchor="middle" font-family="Helvetica,Arial,sans-serif" font-size="10" fill="#0f172a">compiled</text>
</g>
<g id="SDE-PATH-Smooth-cutoff-plateau-base">
  <rect x="1010" y="388" width="210" height="46" rx="7" fill="#dbeafe" stroke="#2563eb" stroke-width="1.8"/>
  <text x="1115.0" y="408" text-anchor="middle" font-family="Helvetica,Arial,sans-serif" font-size="12" font-weight="700" fill="#0f172a">Smooth cutoff/plateau base</text>
  <text x="1115.0" y="426" text-anchor="middle" font-family="Helvetica,Arial,sans-serif" font-size="10" fill="#0f172a">compiled</text>
</g>
<g id="SDE-PATH-Cutoff-fderiv-O-R--1-Pi-trace">
  <rect x="1010" y="444" width="210" height="46" rx="7" fill="#dbeafe" stroke="#2563eb" stroke-width="1.8"/>
  <text x="1115.0" y="464" text-anchor="middle" font-family="Helvetica,Arial,sans-serif" font-size="12" font-weight="700" fill="#0f172a">Cutoff fderiv O(R^-1) + Pi trace</text>
  <text x="1115.0" y="482" text-anchor="middle" font-family="Helvetica,Arial,sans-serif" font-size="10" fill="#0f172a">compiled</text>
</g>
<g id="SDE-PATH-L1-cutoff-gradient-limit">
  <rect x="1010" y="500" width="210" height="46" rx="7" fill="#dbeafe" stroke="#2563eb" stroke-width="1.8"/>
  <text x="1115.0" y="520" text-anchor="middle" font-family="Helvetica,Arial,sans-serif" font-size="12" font-weight="700" fill="#0f172a">L1 cutoff-gradient limit</text>
  <text x="1115.0" y="538" text-anchor="middle" font-family="Helvetica,Arial,sans-serif" font-size="10" fill="#0f172a">compiled</text>
</g>
<g id="SDE-PATH-Cutoff-main-term-DCT">
  <rect x="1010" y="556" width="210" height="46" rx="7" fill="#dbeafe" stroke="#2563eb" stroke-width="1.8"/>
  <text x="1115.0" y="576" text-anchor="middle" font-family="Helvetica,Arial,sans-serif" font-size="12" font-weight="700" fill="#0f172a">Cutoff main-term DCT</text>
  <text x="1115.0" y="594" text-anchor="middle" font-family="Helvetica,Arial,sans-serif" font-size="10" fill="#0f172a">compiled</text>
</g>
<g id="SDE-PATH-2nd-order-cutoff-on-demand">
  <rect x="1010" y="612" width="210" height="46" rx="7" fill="#fee2e2" stroke="#dc2626" stroke-width="1.8"/>
  <text x="1115.0" y="632" text-anchor="middle" font-family="Helvetica,Arial,sans-serif" font-size="12" font-weight="700" fill="#450a0a">2nd-order cutoff (on demand)</text>
  <text x="1115.0" y="650" text-anchor="middle" font-family="Helvetica,Arial,sans-serif" font-size="10" fill="#450a0a">todo</text>
</g>
<g id="SDE-PATH-Finite-Girsanov-RN-cylinder">
  <rect x="1010" y="668" width="210" height="46" rx="7" fill="#dbeafe" stroke="#2563eb" stroke-width="1.8"/>
  <text x="1115.0" y="688" text-anchor="middle" font-family="Helvetica,Arial,sans-serif" font-size="12" font-weight="700" fill="#0f172a">Finite Girsanov RN cylinder</text>
  <text x="1115.0" y="706" text-anchor="middle" font-family="Helvetica,Arial,sans-serif" font-size="10" fill="#0f172a">compiled</text>
</g>
<g id="SDE-PATH-Semigroup-Ito-invariant-law">
  <rect x="1010" y="724" width="210" height="46" rx="7" fill="#fee2e2" stroke="#dc2626" stroke-width="1.8"/>
  <text x="1115.0" y="744" text-anchor="middle" font-family="Helvetica,Arial,sans-serif" font-size="12" font-weight="700" fill="#450a0a">Semigroup/Ito/invariant law</text>
  <text x="1115.0" y="762" text-anchor="middle" font-family="Helvetica,Arial,sans-serif" font-size="10" fill="#450a0a">todo</text>
</g>
<g id="SDE-PATH-Girsanov-Doob-Follmer">
  <rect x="1010" y="780" width="210" height="46" rx="7" fill="#fee2e2" stroke="#dc2626" stroke-width="1.8"/>
  <text x="1115.0" y="800" text-anchor="middle" font-family="Helvetica,Arial,sans-serif" font-size="12" font-weight="700" fill="#450a0a">Girsanov/Doob/Follmer</text>
  <text x="1115.0" y="818" text-anchor="middle" font-family="Helvetica,Arial,sans-serif" font-size="10" fill="#450a0a">todo</text>
</g>
<g id="DISC">
  <rect x="1255" y="140" width="210" height="52" rx="7" fill="#f8fafc" stroke="#475569" stroke-width="1.8"/>
  <text x="1360.0" y="160" text-anchor="middle" font-family="Helvetica,Arial,sans-serif" font-size="12" font-weight="700" fill="#0f172a">DISC</text>
  <text x="1360.0" y="178" text-anchor="middle" font-family="Helvetica,Arial,sans-serif" font-size="10" fill="#0f172a">shared root</text>
</g>
<g id="DISC-LMC-interpolation">
  <rect x="1255" y="220" width="210" height="46" rx="7" fill="#fee2e2" stroke="#dc2626" stroke-width="1.8"/>
  <text x="1360.0" y="240" text-anchor="middle" font-family="Helvetica,Arial,sans-serif" font-size="12" font-weight="700" fill="#450a0a">LMC interpolation</text>
  <text x="1360.0" y="258" text-anchor="middle" font-family="Helvetica,Arial,sans-serif" font-size="10" fill="#450a0a">todo</text>
</g>
<g id="DISC-HMC-underdamped-RM">
  <rect x="1255" y="276" width="210" height="46" rx="7" fill="#fee2e2" stroke="#dc2626" stroke-width="1.8"/>
  <text x="1360.0" y="296" text-anchor="middle" font-family="Helvetica,Arial,sans-serif" font-size="12" font-weight="700" fill="#450a0a">HMC / underdamped / RM</text>
  <text x="1360.0" y="314" text-anchor="middle" font-family="Helvetica,Arial,sans-serif" font-size="10" fill="#450a0a">todo</text>
</g>
<g id="DISC-MALA-proximal">
  <rect x="1255" y="332" width="210" height="46" rx="7" fill="#fee2e2" stroke="#dc2626" stroke-width="1.8"/>
  <text x="1360.0" y="352" text-anchor="middle" font-family="Helvetica,Arial,sans-serif" font-size="12" font-weight="700" fill="#450a0a">MALA / proximal</text>
  <text x="1360.0" y="370" text-anchor="middle" font-family="Helvetica,Arial,sans-serif" font-size="10" fill="#450a0a">todo</text>
</g>
</g>
<rect x="30" y="810" width="22" height="16" fill="#dbeafe" stroke="#2563eb"/>
<text x="60" y="823" font-family="Helvetica,Arial,sans-serif" font-size="12" fill="#0f172a">compiled local ASTIS/Mathlib-ready leaf or module</text>
<rect x="350" y="810" width="22" height="16" fill="#fee2e2" stroke="#dc2626"/>
<text x="380" y="823" font-family="Helvetica,Arial,sans-serif" font-size="12" fill="#450a0a">todo branch/leaf with explicit target module and reviewer contract</text>
<text x="970" y="855" font-family="Helvetica,Arial,sans-serif" font-size="10" fill="#64748b">Generated 2026-08-02 02:28:31 by tools/astis.py lemma-dag-refresh</text>
</svg>
